<svg width="25" height="24" viewBox="0 0 25 24" fill="none" xmlns="http://www.w3.org/2000/svg">
<path d="M12.666 22C18.1889 22 22.666 17.5228 22.666 12C22.666 6.47715 18.1889 2 12.666 2C7.14317 2 2.66602 6.47715 2.66602 12C2.66602 17.5228 7.14317 22 12.666 22Z" stroke="#ABFF8E" stroke-width="2" stroke-linecap="round" stroke-linejoin="round"/>
<path d="M16.666 8H10.666C10.1356 8 9.62688 8.21071 9.2518 8.58579C8.87673 8.96086 8.66602 9.46957 8.66602 10C8.66602 10.5304 8.87673 11.0391 9.2518 11.4142C9.62688 11.7893 10.1356 12 10.666 12H14.666C15.1964 12 15.7052 12.2107 16.0802 12.5858C16.4553 12.9609 16.666 13.4696 16.666 14C16.666 14.5304 16.4553 15.0391 16.0802 15.4142C15.7052 15.7893 15.1964 16 14.666 16H8.66602" stroke="#ABFF8E" stroke-width="2" stroke-linecap="round" stroke-linejoin="round"/>
<path d="M12.666 18V6" stroke="#ABFF8E" stroke-width="2" stroke-linecap="round" stroke-linejoin="round"/>
</svg>
