<svg width="24" height="24" viewBox="0 0 24 24" fill="none" xmlns="http://www.w3.org/2000/svg">
<path d="M12.8305 2.18036C12.5699 2.06151 12.2868 2 12.0005 2C11.7141 2 11.431 2.06151 11.1705 2.18036L2.60045 6.08036C2.423 6.1586 2.27213 6.28676 2.16621 6.44921C2.0603 6.61167 2.00391 6.80142 2.00391 6.99536C2.00391 7.18929 2.0603 7.37904 2.16621 7.5415C2.27213 7.70396 2.423 7.83211 2.60045 7.91036L11.1805 11.8204C11.441 11.9392 11.7241 12.0007 12.0105 12.0007C12.2968 12.0007 12.5799 11.9392 12.8405 11.8204L21.4205 7.92036C21.5979 7.84211 21.7488 7.71396 21.8547 7.5515C21.9606 7.38904 22.017 7.19929 22.017 7.00536C22.017 6.81142 21.9606 6.62167 21.8547 6.45921C21.7488 6.29676 21.5979 6.1686 21.4205 6.09036L12.8305 2.18036Z" stroke="#ABFF8E" stroke-width="2" stroke-linecap="round" stroke-linejoin="round"/>
<path d="M22 17.6504L12.83 21.8104C12.5694 21.9292 12.2864 21.9907 12 21.9907C11.7136 21.9907 11.4306 21.9292 11.17 21.8104L2 17.6504" stroke="#ABFF8E" stroke-width="2" stroke-linecap="round" stroke-linejoin="round"/>
<path d="M22 12.6504L12.83 16.8104C12.5694 16.9292 12.2864 16.9907 12 16.9907C11.7136 16.9907 11.4306 16.9292 11.17 16.8104L2 12.6504" stroke="#ABFF8E" stroke-width="2" stroke-linecap="round" stroke-linejoin="round"/>
</svg>
