<svg width="32" height="32" viewBox="0 0 32 32" fill="none" xmlns="http://www.w3.org/2000/svg">
<path d="M13.334 17.3334C13.9066 18.099 14.6371 18.7324 15.4761 19.1907C16.315 19.649 17.2427 19.9216 18.1962 19.9899C19.1497 20.0582 20.1068 19.9206 21.0024 19.5865C21.8981 19.2524 22.7115 18.7295 23.3873 18.0534L27.3873 14.0534C28.6017 12.7961 29.2737 11.1121 29.2585 9.36411C29.2433 7.61613 28.5422 5.94405 27.3061 4.70799C26.0701 3.47194 24.398 2.77081 22.65 2.75562C20.902 2.74043 19.218 3.4124 17.9607 4.62678L15.6673 6.90678" stroke="#ABFF8E" stroke-width="2" stroke-linecap="round" stroke-linejoin="round"/>
<path d="M18.6669 14.6666C18.0943 13.9011 17.3638 13.2677 16.5249 12.8094C15.6859 12.351 14.7583 12.0785 13.8047 12.0102C12.8512 11.9419 11.8941 12.0795 10.9985 12.4136C10.1028 12.7477 9.28945 13.2705 8.6136 13.9466L4.6136 17.9466C3.39921 19.204 2.72725 20.888 2.74244 22.636C2.75763 24.384 3.45876 26.056 4.69481 27.2921C5.93086 28.5282 7.60295 29.2293 9.35092 29.2445C11.0989 29.2597 12.7829 28.5877 14.0403 27.3733L16.3203 25.0933" stroke="#ABFF8E" stroke-width="2" stroke-linecap="round" stroke-linejoin="round"/>
</svg>
