<svg width="32" height="32" viewBox="0 0 32 32" fill="none" xmlns="http://www.w3.org/2000/svg">
<path d="M22.666 26.6665C24.8752 26.6665 26.666 24.8756 26.666 22.6665C26.666 20.4574 24.8752 18.6665 22.666 18.6665C20.4569 18.6665 18.666 20.4574 18.666 22.6665C18.666 24.8756 20.4569 26.6665 22.666 26.6665Z" stroke="#ABFF8E" stroke-width="2" stroke-linecap="round" stroke-linejoin="round"/>
<path d="M14.266 26.6668H5.33268C4.62544 26.6668 3.94716 26.3858 3.44706 25.8857C2.94697 25.3856 2.66602 24.7074 2.66602 24.0001V6.66679C2.66602 5.95955 2.94697 5.28127 3.44706 4.78118C3.94716 4.28108 4.62544 4.00013 5.33268 4.00013H10.5327C10.9787 3.99576 11.4186 4.10331 11.8123 4.31295C12.2059 4.5226 12.5407 4.82763 12.786 5.20013L13.866 6.80013C14.1088 7.16883 14.4394 7.47149 14.828 7.68093C15.2167 7.89038 15.6512 8.00006 16.0927 8.00013H26.666C27.3733 8.00013 28.0515 8.28108 28.5516 8.78118C29.0517 9.28127 29.3327 9.95955 29.3327 10.6668V16.1335" stroke="#ABFF8E" stroke-width="2" stroke-linecap="round" stroke-linejoin="round"/>
<path d="M28 28L26 26" stroke="#ABFF8E" stroke-width="2" stroke-linecap="round" stroke-linejoin="round"/>
</svg>
