<svg width="32" height="32" viewBox="0 0 32 32" fill="none" xmlns="http://www.w3.org/2000/svg">
<path d="M26.666 4H19.9993C19.263 4 18.666 4.59695 18.666 5.33333V12C18.666 12.7364 19.263 13.3333 19.9993 13.3333H26.666C27.4024 13.3333 27.9993 12.7364 27.9993 12V5.33333C27.9993 4.59695 27.4024 4 26.666 4Z" stroke="#ABFF8E" stroke-width="2" stroke-linecap="round" stroke-linejoin="round"/>
<path d="M13.3333 28.0002V10.6668C13.3333 10.3132 13.1929 9.97407 12.9428 9.72402C12.6928 9.47397 12.3536 9.3335 12 9.3335H5.33333C4.97971 9.3335 4.64057 9.47397 4.39052 9.72402C4.14048 9.97407 4 10.3132 4 10.6668V26.6668C4 27.0205 4.14048 27.3596 4.39052 27.6096C4.64057 27.8597 4.97971 28.0002 5.33333 28.0002H21.3333C21.687 28.0002 22.0261 27.8597 22.2761 27.6096C22.5262 27.3596 22.6667 27.0205 22.6667 26.6668V20.0002C22.6667 19.6465 22.5262 19.3074 22.2761 19.0574C22.0261 18.8073 21.687 18.6668 21.3333 18.6668H4" stroke="#ABFF8E" stroke-width="2" stroke-linecap="round" stroke-linejoin="round"/>
</svg>
