<svg width="34" height="34" viewBox="0 0 34 34" fill="none" xmlns="http://www.w3.org/2000/svg">
<g id="money">
<path id="Vector" d="M31.8743 25.5001H2.12435C1.73317 25.5001 1.41602 25.8172 1.41602 26.2084C1.41602 26.5996 1.73317 26.9167 2.12435 26.9167H31.8743C32.2655 26.9167 32.5827 26.5996 32.5827 26.2084C32.5827 25.8172 32.2655 25.5001 31.8743 25.5001ZM31.8743 31.1667H2.12435C1.73317 31.1667 1.41602 31.4839 1.41602 31.8751C1.41602 32.2663 1.73317 32.5834 2.12435 32.5834H31.8743C32.2655 32.5834 32.5827 32.2663 32.5827 31.8751C32.5827 31.4839 32.2655 31.1667 31.8743 31.1667ZM16.9993 7.79175C15.0433 7.79175 13.4577 9.37737 13.4577 11.3334C13.4577 13.2895 15.0433 14.8751 16.9993 14.8751C18.9546 14.8733 20.5392 13.2887 20.541 11.3334C20.541 9.37737 18.9554 7.79175 16.9993 7.79175ZM16.9993 13.4584C15.8257 13.4584 14.8743 12.507 14.8743 11.3334C14.8743 10.1598 15.8257 9.20841 16.9993 9.20841C18.1724 9.20971 19.1231 10.1603 19.1243 11.3334C19.1243 12.507 18.173 13.4584 16.9993 13.4584ZM8.49935 9.20841C7.32574 9.20841 6.37435 10.1598 6.37435 11.3334C6.37435 12.507 7.32574 13.4584 8.49935 13.4584C9.67244 13.4571 10.6231 12.5065 10.6243 11.3334C10.6243 10.1598 9.67296 9.20841 8.49935 9.20841ZM8.49935 12.0417C8.10817 12.0417 7.79102 11.7246 7.79102 11.3334C7.79102 10.9422 8.10817 10.6251 8.49935 10.6251C8.89026 10.6259 9.2069 10.9425 9.20768 11.3334C9.20768 11.7246 8.89052 12.0417 8.49935 12.0417ZM28.3327 1.41675H5.66602C3.31983 1.41934 1.41861 3.32057 1.41602 5.66675V17.0001C1.41861 19.3463 3.31983 21.2475 5.66602 21.2501H28.3327C30.6789 21.2475 32.5801 19.3463 32.5827 17.0001V5.66675C32.5801 3.32057 30.6789 1.41934 28.3327 1.41675ZM31.166 17.0001C31.164 18.5641 29.8967 19.8314 28.3327 19.8334H5.66602C4.10201 19.8314 2.83467 18.5641 2.83268 17.0001V5.66675C2.83467 4.10274 4.10201 2.8354 5.66602 2.83341H28.3327C29.8967 2.8354 31.164 4.10274 31.166 5.66675V17.0001ZM25.4993 9.20841C24.3257 9.20841 23.3743 10.1598 23.3743 11.3334C23.3743 12.507 24.3257 13.4584 25.4993 13.4584C26.6724 13.4571 27.6231 12.5065 27.6243 11.3334C27.6243 10.1598 26.673 9.20841 25.4993 9.20841ZM25.4993 12.0417C25.1082 12.0417 24.791 11.7246 24.791 11.3334C24.791 10.9422 25.1082 10.6251 25.4993 10.6251C25.8903 10.6259 26.2069 10.9425 26.2077 11.3334C26.2077 11.7246 25.8905 12.0417 25.4993 12.0417Z" fill="#ABFF8E"/>
</g>
</svg>
