<svg width="34" height="34" viewBox="0 0 34 34" fill="none" xmlns="http://www.w3.org/2000/svg">
<g id="new-filter">
<g id="Add Filter">
<path id="Vector" d="M17.9763 28.2535H16.0255C15.5632 28.2549 15.117 28.0834 14.7745 27.7727C14.4321 27.462 14.2181 27.0346 14.1747 26.5742L13.2954 17.5515L5.49404 11.372C5.27377 11.1983 5.09586 10.9768 4.97373 10.7243C4.85161 10.4717 4.78846 10.1948 4.78907 9.91424V7.60596C4.78907 7.11282 4.98496 6.63988 5.33367 6.29118C5.68237 5.94248 6.1553 5.74658 6.64844 5.74658H27.3534C27.8465 5.74658 28.3195 5.94248 28.6682 6.29118C29.0169 6.63988 29.2128 7.11282 29.2128 7.60596V9.91424C29.2134 10.1946 29.1503 10.4715 29.0283 10.7239C28.9062 10.9764 28.7284 11.1978 28.5083 11.3715L20.7064 17.5515L19.8272 26.5742C19.7837 27.0346 19.5697 27.462 19.2273 27.7727C18.8849 28.0834 18.4387 28.2549 17.9763 28.2535ZM6.64844 7.34033C6.57799 7.34033 6.51043 7.36832 6.46062 7.41813C6.4108 7.46795 6.38282 7.53551 6.38282 7.60596V9.91424C6.38274 9.95454 6.39184 9.99433 6.40942 10.0306C6.427 10.0669 6.4526 10.0986 6.48429 10.1236L14.5503 16.5124C14.6342 16.5788 14.704 16.6615 14.7553 16.7556C14.8066 16.8496 14.8384 16.953 14.8488 17.0596L15.761 26.4196C15.7673 26.4856 15.7981 26.5468 15.8472 26.5912C15.8964 26.6356 15.9604 26.6601 16.0266 26.6598H17.9773C18.0436 26.6601 18.1076 26.6356 18.1567 26.5912C18.2058 26.5468 18.2366 26.4856 18.243 26.4196L19.1551 17.0596C19.1656 16.953 19.1974 16.8496 19.2487 16.7556C19.3 16.6615 19.3697 16.5788 19.4537 16.5124L27.5197 10.123C27.5512 10.0981 27.5766 10.0664 27.5941 10.0302C27.6116 9.99406 27.6207 9.95441 27.6206 9.91424V7.60596C27.6206 7.53551 27.5926 7.46795 27.5428 7.41813C27.493 7.36832 27.4254 7.34033 27.355 7.34033H6.64844Z" fill="#ABFF8E"/>
<path id="Vector_2" d="M28.2135 22.677H22.3809C22.1695 22.677 21.9668 22.593 21.8174 22.4436C21.6679 22.2942 21.584 22.0915 21.584 21.8801C21.584 21.6688 21.6679 21.4661 21.8174 21.3167C21.9668 21.1672 22.1695 21.0833 22.3809 21.0833H28.2135C28.4248 21.0833 28.6275 21.1672 28.7769 21.3167C28.9264 21.4661 29.0103 21.6688 29.0103 21.8801C29.0103 22.0915 28.9264 22.2942 28.7769 22.4436C28.6275 22.593 28.4248 22.677 28.2135 22.677Z" fill="#ABFF8E"/>
<path id="Vector_3" d="M25.2988 25.5936C25.0875 25.5936 24.8848 25.5096 24.7354 25.3602C24.5859 25.2107 24.502 25.008 24.502 24.7967V18.9657C24.502 18.7544 24.5859 18.5517 24.7354 18.4022C24.8848 18.2528 25.0875 18.1688 25.2988 18.1688C25.5102 18.1688 25.7129 18.2528 25.8623 18.4022C26.0117 18.5517 26.0957 18.7544 26.0957 18.9657V24.7988C26.0951 25.0098 26.0109 25.2119 25.8616 25.3609C25.7122 25.5099 25.5098 25.5936 25.2988 25.5936Z" fill="#ABFF8E"/>
</g>
</g>
</svg>
