<svg width="34" height="34" viewBox="0 0 34 34" fill="none" xmlns="http://www.w3.org/2000/svg">
<g id="user">
<path id="Vector" d="M16.967 18.3465C20.367 18.3465 23.0938 15.5861 23.0938 12.2197C23.0938 8.85339 20.367 6.05933 16.967 6.05933C13.567 6.05933 10.8403 8.81972 10.8403 12.1861C10.8403 15.5524 13.567 18.3465 16.967 18.3465ZM16.967 7.67517C19.4581 7.67517 21.4779 9.69497 21.4779 12.1861C21.4779 14.6771 19.4581 16.6969 16.967 16.6969C14.4759 16.6969 12.4561 14.7108 12.4561 12.2197C12.4561 9.72863 14.4759 7.67517 16.967 7.67517ZM6.32941 27.9405H27.672C28.1096 27.9405 28.4799 27.5702 28.4799 27.1326C28.4799 22.891 25.0126 19.4237 20.771 19.4237H13.2304C8.98881 19.4237 5.52148 22.891 5.52148 27.1326C5.52148 27.5702 5.89178 27.9405 6.32941 27.9405ZM13.2304 21.0395H20.771C23.868 21.0395 26.3928 23.3286 26.7967 26.3247H7.20465C7.60861 23.3286 10.1334 21.0395 13.2304 21.0395Z" fill="#ABFF8E"/>
</g>
</svg>
